# xmcd
#
# Track frame offsets: 
#        150
#        18004
#        32191
#        48501
#        64997
#        74586
#        91214
#        102436
#        115750
#        129337
#        149972
#        166794
#        184647
#        195641
#        210146
#        221454
#        232966
#        245730
#        262029
#        276898
#        289580
#
# Disc length: 4105 seconds
#
# Revision: 0
# Processed by: cddbd v1.5.2PL0 Copyright (c) Steve Scherf et al.
# Submitted via: ExactAudioCopy v1.3
#
DISCID=39100715
DTITLE=Various Artist - 101 Country And Irish Cd5
DYEAR=1900
DGENRE=Celtic
TTITLE0=Mick Flavin - Radio Lover
TTITLE1=Susan McCann - Someone is looking For someone Like You
TTITLE2=Jimmy Buckley - My Woman My Wife
TTITLE3=Paul Kelly - So In Love 
TTITLE4=kenny Paul - Kiss An Angel Goodmorning
TTITLE5=Brendan Bowyer - las Vegas In The Hills Of Donegall
TTITLE6=Frankie McBride - Burning Bridges 
TTITLE7=johnny McEvoy - Runaround Angel
TTITLE8=Tracy And The Grassroots - I Fall To Pieces
TTITLE9=the Cotton Mill Boys - Me And Bobby McGee
TTITLE10=Tr Dallas - Daddys Girl
TTITLE11=Big Tom and The Mainliners - A Bunch Of Voilets Blue
TTITLE12=Philomena Begley - Tra la La Triangle
TTITLE13=Barleycorn - Candle Light and Wine
TTITLE14=Sean Dunphy - I'm Gona Be a Country Boy Again
TTITLE15=Gloria - stand By Your Man
TTITLE16=Curtis McGee - any Old Town In Ireland
TTITLE17=James Kilblane - Mamas Roses
TTITLE18=Brendan Quinn - It's 4 In The Morning
TTITLE19=Robert Mizzel - Whos Gona Dance With You
TTITLE20=The Davitt Country Band - Medley
EXTD=
EXTT0=
EXTT1=
EXTT2=
EXTT3=
EXTT4=
EXTT5=
EXTT6=
EXTT7=
EXTT8=
EXTT9=
EXTT10=
EXTT11=
EXTT12=
EXTT13=
EXTT14=
EXTT15=
EXTT16=
EXTT17=
EXTT18=
EXTT19=
EXTT20=
PLAYORDER=
